<svg xmlns="http://www.w3.org/2000/svg" width="24" height="24" viewBox="0 0 24 24" fill="none" stroke="#219fff" stroke-width="1.8" stroke-linecap="round" stroke-linejoin="round">
  <!-- Clyde motif shared with quickshell-bar/icons/discord.svg. -->
  <path d="M8 6.7 8.8 5l2.1 1h2.2l2.1-1 .8 1.7c2 .7 3.2 3.5 3.5 8.5-1.2 1-2.5 1.6-3.8 2.1l-1.2-1.6a8.8 8.8 0 0 1-5 0l-1.2 1.6a12.7 12.7 0 0 1-3.8-2.1C4.8 10.2 6 7.4 8 6.7Z"/>
  <circle cx="9" cy="11.5" r="1" fill="#219fff" stroke="none"/>
  <circle cx="15" cy="11.5" r="1" fill="#219fff" stroke="none"/>
  <path d="M9.2 14.2c1.8.8 3.8.8 5.6 0"/>
</svg>
